<?xml version="1.0" encoding="UTF-8"?>
<svg xmlns="http://www.w3.org/2000/svg" width="1024" height="1024" viewBox="0 0 1024 1024" fill="none">
  <title>Aperture Icon — Light</title>
  <desc>Clean light-theme icon preserving the original diopter geometry.</desc>
  <g transform="translate(96 163.5)">
    <svg x="0" y="0" width="832" height="697" viewBox="0 0 1317.5 1099.21" preserveAspectRatio="xMidYMid meet">
      <path d="M1317.26,546.79c-1.6-23.8-18.8-45.3-41.6-52.1-10.8-4-30.5-2.3-41.9-2.7-20.4-212-175.6-401.6-378.8-464.7C543.16-79.81,185.96,140.99,142.96,467.99c-22.1,1.4-70.4-4-90.6,6-35.3,13.6-57.6,52.8-51.3,90,4.5,31.8,29.1,59.4,60.1,67.6,16.2,5.7,64.4,2,81.8,3,112.8,633.4,1006,613.2,1090.8-24,11.6-.4,29.3,1.4,40.3-2.1,26.7-6.9,45.8-34.3,43.2-61.7ZM1124.76,626.19c.5-2.9,1-5.9,1.4-8.8-.4,2.9-.9,5.8-1.4,8.8ZM1126.86,612.69c.4-3.1.8-6.2,1.2-9.3-.4,3.1-.8,6.2-1.2,9.3ZM1128.16,602.39c.7-5.7,1.2-11.4,1.6-17.1-.4,5.7-.9,11.4-1.6,17.1ZM1066.66,320.89c-2-3.2-4-6.5-6-9.7,2,3.2,4,6.5,6,9.7ZM941.16,187.09c-2.7-1.9-5.4-3.7-8.1-5.5,2.7,1.8,5.4,3.6,8.1,5.5ZM775.66,115.99c11.1,2.3,22,4.9,32.9,8.1-14.2-4.1-28.5-7.4-43-10,3.4.6,6.8,1.2,10.1,1.9ZM845.86,136.69c-10.5-4.1-21.2-7.7-31.9-11,10.7,3.2,21.4,6.9,31.9,11ZM248.96,626.29c-1.1-6.2-2-12.3-2.8-18.5.8,6.2,1.7,12.4,2.8,18.5ZM249.76,630.89c.6,3.1,1.2,6.2,1.8,9.2-.6-3-1.2-6.1-1.8-9.2ZM248.96,476.29c-1.1,6.2-2,12.4-2.8,18.6.8-6.2,1.7-12.4,2.8-18.6ZM272.96,390.29c-1,2.6-2,5.2-3,7.8,1-2.6,2-5.2,3-7.8ZM269.76,398.79c-.9,2.5-1.8,5.1-2.7,7.6.8-2.6,1.7-5.1,2.7-7.6ZM266.66,407.29c-.9,2.5-1.7,5-2.5,7.5.8-2.5,1.7-5,2.5-7.5ZM263.76,415.99c-.8,2.4-1.6,4.9-2.3,7.3.8-2.5,1.5-4.9,2.3-7.3ZM261.06,424.69c-.7,2.4-1.4,4.8-2.1,7.2.7-2.4,1.4-4.8,2.1-7.2ZM258.56,433.49c-.6,2.3-1.3,4.7-1.9,7,.6-2.4,1.2-4.7,1.9-7ZM256.16,442.59c-.6,2.2-1.1,4.4-1.6,6.6.5-2.2,1-4.4,1.6-6.6ZM253.66,649.69c1.4,6,2.9,12,4.5,17.9-1.7-5.9-3.2-11.9-4.5-17.9ZM563.96,551.29c.9-160.6,244.8-160.6,245.6,0-.8,160.6-244.7,160.6-245.6,0ZM926.26,925.29c-6.4,4.1-12.9,8-19.4,11.8h-160.7v-194.3c74-22,130.7-90.2,139.6-166.8,19.2-129.4-104.7-246.6-230.7-222.7-119.7,16.2-199.9,149.7-157.9,263,20.1,59.7,70,108.1,130.3,126.5v194.2c-2.6-1.1-177.6,4.3-171.3-6.3-82.7-50-148.2-128-183.2-218.3l1.1,2.8c-5.7-14.2-10.6-28.5-14.7-43.1,3.9,13.6,8.4,27.1,13.6,40.3-40.4-103.2-40.4-219.5.1-322.6,0,.1-.1.2-.1.3C384.76,98.49,763.96,12.89,990.66,227.19c-12.6-11.9-25.9-22.9-39.8-33.2,61.7,45.4,110.8,107.2,142,177.6-6.2-14-13-27.7-20.6-40.9,66.3,115.2,77.1,258.9,28,382.5,5.2-13.3,9.8-26.8,13.8-40.5-29.2,103.3-97.3,195.1-187.8,252.6Z" fill="#111827"/>
      <polygon points="686.86 464.29 572.66 556.19 686.86 630.19 800.26 556.19 686.86 464.29" fill="#111827"/>
    </svg>
  </g>
</svg>
