<svg xmlns="http://www.w3.org/2000/svg" width="1024" height="1024" viewBox="0 0 1024 1024" fill="none">
  <title>Figure icon variation</title>
  <g transform="translate(96.000 183.637) scale(0.462222222)">
    <path d="M1682.58 550.53c-42.78-100.61-104.02-190.97-182.02-268.56a847 847 0 0 0-269.97-181.05c-104.71-44.06-215.94-66.4-330.58-66.4s-225.88 22.34-330.6 66.4a847 847 0 0 0-269.96 181.05c-78.01 77.59-139.25 167.95-182.03 268.56-44.3 104.17-66.76 214.82-66.76 328.89a840 840 0 0 0 44.25 269.85 840 840 0 0 0 123.1 233.8l2.4 3.21h1359.18l2.4-3.21a840 840 0 0 0 123.1-233.8 840 840 0 0 0 44.25-269.85c0-114.07-22.46-224.72-66.76-328.89m-111.02 819.75H228.43c-105.84-143-161.77-312.64-161.77-490.86 0-457.06 373.84-828.9 833.35-828.9s833.33 371.84 833.33 828.9c0 178.22-55.93 347.86-161.78 490.86" fill="#FFFFFF"/>
    <path d="M1733.34 879.42c0 178.22-55.93 347.86-161.78 490.86H228.43c-105.84-143-161.77-312.64-161.77-490.86 0-457.06 373.84-828.9 833.35-828.9s833.33 371.84 833.33 828.9" fill="#0F172A"/>
    <path d="M1170.42 1082.09H632.56l-2.4-3.07c-46.18-59.1-70.6-129.81-70.6-204.49 0-89.78 35.59-174.17 100.2-237.64 64.58-63.43 150.42-98.36 241.73-98.36s177.15 34.93 241.73 98.36c64.62 63.47 100.2 147.86 100.2 237.64 0 74.68-24.41 145.39-70.6 204.49zm-530.03-16h522.2c42.43-55.63 64.83-121.77 64.83-191.56 0-176.45-146.21-320-325.93-320s-325.93 143.55-325.93 320c0 69.79 22.4 135.93 64.83 191.56" fill="#FFFFFF"/>
  </g>
</svg>
